<?xml version="1.0" encoding="UTF-8"?>
<svg xmlns="http://www.w3.org/2000/svg" xmlns:xlink="http://www.w3.org/1999/xlink" viewBox="0 0 667.87 667.87">
    <defs>
        <style>
            .cls-1{clip-path:url(#clippath);}.cls-2{fill:none;}.cls-2,.cls-3,.cls-4,.cls-5,.cls-6,.cls-7,.cls-8,.cls-9,.cls-10,.cls-11{stroke-width:0px;}.cls-3{fill:url(#linear-gradient);}.cls-12{clip-path:url(#clippath-1);}.cls-13{clip-path:url(#clippath-4);}.cls-14{clip-path:url(#clippath-3);}.cls-15{clip-path:url(#clippath-2);}.cls-16{opacity:.3;}.cls-5{fill:#f3fbfd;}.cls-6{fill:#5e8ca8;}.cls-7{fill:#b0cddd;}.cls-8{fill:#fff;}.cls-9{fill:#fbfffe;}.cls-10{fill:#f6615d;}.cls-11{fill:#012336;}
        </style>
        <linearGradient id="linear-gradient" x1="120.49" y1="-35.77" x2="547.38" y2="703.64"
                        gradientUnits="userSpaceOnUse">
            <stop offset="0" stop-color="#f7f7f7"/>
            <stop offset=".35" stop-color="#f3f4f4"/>
            <stop offset=".61" stop-color="#eaebec"/>
            <stop offset=".85" stop-color="#d9dbdf"/>
            <stop offset="1" stop-color="#cbced4"/>
        </linearGradient>
        <clipPath id="clippath">
            <polygon class="cls-2"
                     points="362.36 66.5 305.46 66.5 305.46 82.17 316.76 82.17 316.76 168.11 351.06 168.11 351.06 82.17 362.36 82.17 362.36 66.5"/>
        </clipPath>
        <clipPath id="clippath-1">
            <rect class="cls-2" x="291.77" y="87.48" width="84.34" height="2.99"/>
        </clipPath>
        <clipPath id="clippath-2">
            <rect class="cls-2" x="448.6" y="175.03" width="77.85" height="40.36"
                  transform="translate(13.34 420.92) rotate(-47.28)"/>
        </clipPath>
        <clipPath id="clippath-3">
            <circle class="cls-2" cx="333.93" cy="360.93" r="223.21"/>
        </clipPath>
        <clipPath id="clippath-4">
            <circle class="cls-2" cx="333.93" cy="360.93" r="185.09"/>
        </clipPath>
    </defs>
    <g id="bg">
        <rect class="cls-3" width="667.87" height="667.87" rx="79.99" ry="79.99"/>
    </g>
    <g id="expanded">
        <path class="cls-7"
              d="M366.76,58.5h-65.7c-1.99,0-3.6,1.61-3.6,3.6v28.06h11.3v85.95h50.3v-85.95h11.3v-28.06c0-1.99-1.61-3.6-3.6-3.6Z"/>
        <path class="cls-11"
              d="M367.06,184.11h-66.3v-85.95h-11.3v-36.06c0-6.4,5.2-11.6,11.6-11.6h65.7c6.4,0,11.6,5.2,11.6,11.6v36.06h-11.3v85.95ZM316.76,168.11h34.3v-85.95h11.3v-15.66h-56.9v15.66h11.3v85.95Z"/>
        <path class="cls-7"
              d="M496.21,144.27l-61.23,66.3,41.41,38.24,61.23-66.3c1.35-1.46,1.34-3.66-.02-4.92l-36.48-33.69c-1.36-1.26-3.56-1.09-4.91.37Z"/>
        <path class="cls-11"
              d="M476.39,256.81c-2.01,0-3.95-.76-5.43-2.12l-41.41-38.24c-3.25-3-3.45-8.06-.45-11.3l61.23-66.3c2.03-2.2,4.77-3.53,7.72-3.75,3.12-.23,6.21.83,8.49,2.94l36.48,33.69c4.6,4.25,4.81,11.52.47,16.22l-61.23,66.3c-1.44,1.56-3.44,2.48-5.56,2.57-.11,0-.21,0-.32,0ZM446.29,210.12l29.65,27.38,52.82-57.19-29.65-27.38-52.82,57.19ZM502.09,149.69h0s0,0,0,0ZM496.21,144.27h0,0Z"/>
        <g class="cls-1">
            <rect class="cls-6" x="330.44" y="46.99" width="69.83" height="99.67"/>
            <rect class="cls-5" x="267.77" y="45.79" width="39.69" height="36.38"/>
            <rect class="cls-5" x="277.72" y="95.93" width="40.84" height="51.33"/>
        </g>
        <rect class="cls-7" x="283.77" y="79.48" width="100.34" height="18.99" rx="3.6" ry="3.6"/>
        <path class="cls-11"
              d="M380.5,106.47h-93.14c-6.4,0-11.6-5.2-11.6-11.6v-11.79c0-6.4,5.2-11.6,11.6-11.6h93.14c6.4,0,11.6,5.2,11.6,11.6v11.79c0,6.4-5.2,11.6-11.6,11.6ZM291.77,90.47h84.34v-2.99h-84.34v2.99Z"/>
        <g class="cls-12">
            <rect class="cls-6" x="330.44" y="46.99" width="69.83" height="99.67"/>
            <rect class="cls-5" x="261.19" y="66.5" width="33.16" height="50.8"/>
        </g>
        <g class="cls-15">
            <polygon class="cls-6" points="475.94 237.5 528.76 180.31 511.64 159.13 458.82 217.32 475.94 237.5"/>
        </g>
        <path class="cls-7"
              d="M333.93,592.15c-61.76,0-119.82-24.05-163.49-67.72-43.67-43.67-67.72-101.73-67.72-163.49s24.05-119.82,67.72-163.49,101.73-67.72,163.49-67.72,119.82,24.05,163.49,67.72c43.67,43.67,67.72,101.73,67.72,163.49s-24.05,119.82-67.72,163.49c-43.67,43.67-101.73,67.72-163.49,67.72Z"/>
        <path class="cls-11"
              d="M333.93,137.72c123.28,0,223.21,99.93,223.21,223.21s-99.93,223.21-223.21,223.21-223.21-99.93-223.21-223.21,99.93-223.21,223.21-223.21M333.93,121.72c-32.29,0-63.62,6.33-93.12,18.8-28.49,12.05-54.07,29.29-76.03,51.26-21.96,21.96-39.21,47.54-51.26,76.03-12.48,29.5-18.8,60.83-18.8,93.12s6.33,63.62,18.8,93.12c12.05,28.49,29.29,54.07,51.26,76.03,21.96,21.96,47.54,39.21,76.03,51.26,29.5,12.48,60.83,18.8,93.12,18.8s63.62-6.33,93.12-18.8c28.49-12.05,54.07-29.29,76.03-51.26,21.96-21.96,39.21-47.54,51.26-76.03,12.48-29.5,18.8-60.83,18.8-93.12s-6.33-63.62-18.8-93.12c-12.05-28.49-29.29-54.07-51.26-76.03-21.96-21.96-47.54-39.21-76.03-51.26-29.5-12.48-60.83-18.8-93.12-18.8h0Z"/>
        <g class="cls-14">
            <path class="cls-6"
                  d="M370.36,131.14c-33.69-33.69,253.13-64.46,253.13-64.46l-25.06,523.13-258.44,78.48s-200.37-155.59-183.83-152.79c168.91,90.12,251.87,35.21,344.98-57.89,65.06-102.66,8.36-261.68-130.78-326.47Z"/>
            <path class="cls-5"
                  d="M340.53,120.05c-137.23,0-248.48,111.25-248.48,248.48s111.25,248.48,248.48,248.48,248.48-111.25,248.48-248.48-111.25-248.48-248.48-248.48ZM337.52,591.14c-124.61,0-225.62-101.01-225.62-225.62s103.01-227.62,227.62-227.62,223.62,103.01,223.62,227.62-101.01,225.62-225.62,225.62Z"/>
        </g>
        <circle class="cls-8" cx="333.93" cy="360.93" r="191.59"/>
        <path class="cls-11"
              d="M333.93,175.85c102.22,0,185.09,82.87,185.09,185.09s-82.87,185.09-185.09,185.09-185.09-82.87-185.09-185.09,82.87-185.09,185.09-185.09M333.93,162.85c-26.74,0-52.68,5.24-77.11,15.57-23.59,9.98-44.77,24.26-62.96,42.45s-32.47,39.37-42.45,62.96c-10.33,24.43-15.57,50.37-15.57,77.11s5.24,52.68,15.57,77.11c9.98,23.59,24.26,44.77,42.45,62.96,18.19,18.19,39.37,32.47,62.96,42.45,24.43,10.33,50.37,15.57,77.11,15.57s52.68-5.24,77.11-15.57c23.59-9.98,44.77-24.26,62.96-42.45s32.47-39.37,42.45-62.96c10.33-24.43,15.57-50.37,15.57-77.11s-5.24-52.68-15.57-77.11c-9.98-23.59-24.26-44.77-42.45-62.96-18.19-18.19-39.37-32.47-62.96-42.45-24.43-10.33-50.37-15.57-77.11-15.57h0Z"/>
        <path class="cls-10"
              d="M333.93,175.85c-102.22,0-185.09,82.87-185.09,185.09h370.18c0-102.22-82.87-185.09-185.09-185.09Z"/>
        <g class="cls-16">
            <g class="cls-13">
                <path class="cls-4"
                      d="M448.31,215.38c26.21,30.05,42.31,74.91,42.31,134.47,0,96.1-86.36,174.01-192.89,174.01-21.1,0-39.88-.94-56.61-2.75,27.29,15.85,58.99,24.93,92.82,24.93,102.23,0,185.11-82.88,185.11-185.11,0-59.06-27.66-111.66-70.73-145.55Z"/>
            </g>
        </g>
        <rect class="cls-11" x="146.15" y="346.2" width="375.56" height="29.47"/>
        <circle class="cls-9" cx="333.93" cy="360.93" r="56.17"/>
        <path class="cls-11"
              d="M333.93,317.77c23.84,0,43.17,19.33,43.17,43.17s-19.33,43.17-43.17,43.17-43.17-19.33-43.17-43.17,19.33-43.17,43.17-43.17M333.93,291.77c-38.14,0-69.17,31.03-69.17,69.17s31.03,69.17,69.17,69.17,69.17-31.03,69.17-69.17-31.03-69.17-69.17-69.17h0Z"/>
        <ellipse class="cls-8" cx="208.89" cy="280.35" rx="23.99" ry="18.5"
                 transform="translate(-136.29 335.87) rotate(-62.45)"/>
        <ellipse class="cls-8" cx="255.25" cy="232.73" rx="29.98" ry="18.5"
                 transform="translate(-89.52 211.61) rotate(-38.85)"/>
        <circle class="cls-8" cx="307.46" cy="205.75" r="10.1"/>
    </g>
</svg>